Coordinates
version=1
nRows=8
nColumns=33
inDegrees=yes

Units are S.I. units (second, meters, Newtons, ...)
Angles are in degrees.

endheader
time	ground_thorax_rot_x	ground_thorax_rot_y	ground_thorax_rot_z	ground_thorax_tx	ground_thorax_ty	ground_thorax_tz	clav_prot_r	clav_elev_r	scapula_abduction_r	scapula_elevation_r	scapula_upward_rot_r	scapula_winging_r	shoulder_elv_r	plane_of_elev_r	axial_rot_r	elbow_flexion_r	pro_sup_r	wrist_flex_r	wrist_dev_r	clav_prot_l	clav_elev_l	scapula_abduction_l	scapula_elevation_l	scapula_upward_rot_l	scapula_winging_l	shoulder_elv_l	plane_of_elev_l	axial_rot_l	elbow_flexion_l	pro_sup_l	wrist_flex_l	wrist_dev_l
      5.01000000	    -12.41737152	    -40.03438150	     67.06663733	     31.41522188	    787.03223416	    -35.92443878	     29.57173296	    -45.00000000	     41.64188517	    -45.00000000	    -45.00000000	   2053.80645408	    253.33733160	    161.15141042	     45.94695504	   2160.20652453	    173.44208460	     12.49999639	     13.87098287	     -4.07478312	     36.03600404	    -29.07869906	    -45.00000000	    -32.20341452	   3695.87535756	  -2987.05008689	    141.44065687	    179.99999979	    358.38421374	    404.10122087	     14.91701209	    -19.49618095
      5.02000000	    -12.13175554	    -40.00195464	     67.53672360	     33.08817461	    785.21600496	    -35.66997400	     29.59983499	    -45.00000000	     41.60703470	    -45.00000000	    -45.00000000	   2053.66612941	    253.35142320	    161.23964528	     46.68295047	   2160.22123273	    173.42713542	     12.42749060	     13.77746035	     -4.12390131	     35.88704523	    -28.82003871	    -45.00000000	    -32.65008079	   3695.65705510	  -2987.09191094	    141.38396235	    179.99999979	    358.34263265	    403.82190082	     14.89348620	    -19.30252228
      5.03000000	    -11.83174516	    -39.97266838	     68.03768730	     34.69152040	    783.43753849	    -35.43212491	     29.65837339	    -45.00000000	     41.57780044	    -45.00000000	    -45.00000000	   2053.47908923	    253.35132017	    161.30414251	     47.45018315	   2160.26986635	    173.34253643	     12.35256037	     13.69731150	     -4.14573282	     35.77989847	    -28.56464734	    -45.00000000	    -33.09842537	   3695.45991329	  -2987.11369262	    141.32032421	    179.99999979	    358.27636742	    403.52849420	     14.90496531	    -19.13205607
      5.04000000	    -11.53850027	    -39.93610297	     68.51047867	     36.22568542	    781.70327320	    -35.21495118	     29.71302889	    -45.00000000	     41.54523270	    -45.00000000	    -45.00000000	   2053.31399736	    253.36131926	    161.37061899	     48.24621282	   2160.31934786	    173.19514923	     12.27437551	     13.61218754	     -4.19115652	     35.66109313	    -28.31682308	    -45.00000000	    -33.52263191	   3695.27170365	  -2987.14674581	    141.26247436	    179.99999979	    358.19504501	    403.21919113	     14.91577137	    -18.95989702
      5.05000000	    -11.25342517	    -39.89532311	     68.96214298	     37.69054375	    780.01909807	    -35.02129681	     29.76493873	    -45.00000000	     41.51061490	    -45.00000000	    -45.00000000	   2053.14169928	    253.36926893	    161.43171403	     49.04818018	   2160.36779994	    172.98790591	     12.19807840	     13.52682056	     -4.22962030	     35.55936494	    -28.07279546	    -45.00000000	    -33.91638386	   3695.09862638	  -2987.18280598	    141.20733921	    179.99999979	    358.10429975	    402.89583079	     14.92985993	    -18.78956825
      5.06000000	    -10.97951380	    -39.84979764	     69.39057594	     39.08632814	    778.39054050	    -34.85119859	     29.81572753	    -45.00000000	     41.47970051	    -45.00000000	    -45.00000000	   2052.97136293	    253.38627630	    161.49208316	     49.85935422	   2160.41670100	    172.73081401	     12.12144446	     13.44284334	     -4.27541527	     35.46377257	    -27.84035096	    -45.00000000	    -34.27948882	   3694.94541949	  -2987.22235854	    141.15470354	    179.99999979	    358.00144522	    402.55925121	     14.94780634	    -18.62431587
      5.07000000	    -10.71146433	    -39.79527349	     69.79462342	     40.41113542	    776.82390062	    -34.70279114	     29.85563041	    -45.00000000	     41.44297995	    -45.00000000	    -45.00000000	   2052.80679831	    253.41405413	    161.54177594	     50.67238041	   2160.47185072	    172.43863467	     12.04306175	     13.35173620	     -4.32355601	     35.37289570	    -27.60080648	    -45.00000000	    -34.61367099	   3694.79309655	  -2987.26733954	    141.09698151	    179.99999979	    357.89096683	    402.21511159	     14.95816181	    -18.45504826
      5.08000000	    -10.46616304	    -39.73481055	     70.18703164	     41.66205558	    775.32522235	    -34.57173451	     29.89547634	    -45.00000000	     41.39198334	    -45.00000000	    -45.00000000	   2052.62082360	    253.45613392	    161.59559934	     51.46137242	   2160.52418814	    172.12276668	     11.96765172	     13.26122348	     -4.37101388	     35.28778470	    -27.36237826	    -45.00000000	    -34.92651796	   3694.65704657	  -2987.29341639	    141.02805578	    179.99999979	    357.79021283	    401.86044101	     14.96394004	    -18.29495341
